<svg xmlns="http://www.w3.org/2000/svg" version="1.1" xmlns:xlink="http://www.w3.org/1999/xlink" xmlns:svgjs="http://svgjs.dev/svgjs" width="1000" height="1000" viewBox="0 0 1000 1000"><rect width="1000" height="1000" fill="#ffffff"></rect><g transform="matrix(0.7,0,0,0.7,149.57575765172328,442.88151173766187)"><svg viewBox="0 0 396 65" data-background-color="#051726" preserveAspectRatio="xMidYMid meet" height="164" width="1000" xmlns="http://www.w3.org/2000/svg" xmlns:xlink="http://www.w3.org/1999/xlink"><g id="tight-bounds" transform="matrix(1,0,0,1,0.2400000429748843,-0.15939246349466885)"><svg viewBox="0 0 395.52 65.31878179923649" height="65.31878179923649" width="395.52"><g><svg viewBox="0 0 500.91492827502935 82.72439547931037" height="65.31878179923649" width="395.52"><g><rect width="3.661969554355354" height="60.15775503379661" x="405.10630773391455" y="11.283320222756881" fill="#000000" opacity="1" stroke-width="0" stroke="transparent" fill-opacity="1" class="rect-o-0" data-fill-palette-color="primary" rx="1%" id="o-0" data-palette-color="#ffffff"></rect></g><g transform="matrix(1,0,0,1,0,11.432966379557367)"><svg viewBox="0 0 395.52 59.85846272019564" height="59.85846272019564" width="395.52"><g id="textblocktransform"><svg viewBox="0 0 395.52 59.85846272019564" height="59.85846272019564" width="395.52" id="textblock"><g><svg viewBox="0 0 395.52 40.6068712360195" height="40.6068712360195" width="395.52"><g transform="matrix(1,0,0,1,0,0)"><svg width="395.52" viewBox="2.1500000953674316 -34.79999923706055 346.52001953125 35.79999923706055" height="40.6068712360195" data-palette-color="#ffffff"><g class="undefined-text-0" data-fill-palette-color="primary" id="text-0"><path d="M2.15-34.8L12.45-34.8 12.45 0 2.15 0 2.15-34.8ZM45-34.8L45 0 32.1 0 24.5-25.4 24.65-24.3Q25.2-20.65 25.52-17.63 25.85-14.6 25.85-10.8L25.85-10.8 25.85 0 16.75 0 16.75-34.8 29.4-34.8 37.3-9.3 37.15-10.35Q36.55-13.8 36.22-16.78 35.9-19.75 35.9-23.65L35.9-23.65 35.9-34.8 45-34.8ZM60.45-34.8Q68.85-34.8 73.9-31.08 78.95-27.35 78.95-17.55L78.95-17.55Q78.95-7.9 74.1-3.95 69.25 0 61.05 0L61.05 0 49.3 0 49.3-34.8 60.45-34.8ZM61.7-27.55L59.6-27.55 59.6-7.25 61.65-7.25Q64.05-7.25 65.5-8.2 66.95-9.15 67.65-11.38 68.35-13.6 68.35-17.55L68.35-17.55Q68.35-21.45 67.62-23.63 66.9-25.8 65.45-26.68 64-27.55 61.7-27.55L61.7-27.55ZM82.09-34.8L92.39-34.8 92.39 0 82.09 0 82.09-34.8ZM125.84 0L114.94 0 113.59-6.75 105.34-6.75 104.04 0 93.29 0 103.44-34.8 115.74-34.8 125.84 0ZM109.44-27.6L106.79-13.95 112.14-13.95 109.44-27.6ZM154.99-34.8L154.99 0 142.09 0 134.49-25.4 134.64-24.3Q135.19-20.65 135.51-17.63 135.84-14.6 135.84-10.8L135.84-10.8 135.84 0 126.74 0 126.74-34.8 139.39-34.8 147.29-9.3 147.14-10.35Q146.54-13.8 146.21-16.78 145.89-19.75 145.89-23.65L145.89-23.65 145.89-34.8 154.99-34.8Z" fill="#000000" data-fill-palette-color="primary"></path><path d="M168.29-34.8Q176.69-34.8 181.74-31.08 186.79-27.35 186.79-17.55L186.79-17.55Q186.79-7.9 181.94-3.95 177.09 0 168.89 0L168.89 0 157.14 0 157.14-34.8 168.29-34.8ZM169.54-27.55L167.44-27.55 167.44-7.25 169.49-7.25Q171.89-7.25 173.34-8.2 174.79-9.15 175.49-11.38 176.19-13.6 176.19-17.55L176.19-17.55Q176.19-21.45 175.47-23.63 174.74-25.8 173.29-26.68 171.84-27.55 169.54-27.55L169.54-27.55ZM219.09 0L208.19 0 206.84-6.75 198.59-6.75 197.29 0 186.54 0 196.69-34.8 208.99-34.8 219.09 0ZM202.69-27.6L200.04-13.95 205.39-13.95 202.69-27.6ZM219.99-34.8L230.29-34.8 230.29 0 219.99 0 219.99-34.8ZM234.58-34.8L244.88-34.8 244.88-7.9 258.03-7.9 256.98 0 234.58 0 234.58-34.8ZM279.38-34.8L290.28-34.8 279.18-12.85 279.18 0 268.88 0 268.88-12.8 257.78-34.8 269.03-34.8 274.18-20.6 279.38-34.8ZM295.53-9.3Q297.68-9.3 299.18-7.78 300.68-6.25 300.68-4.15L300.68-4.15Q300.68-2.05 299.18-0.53 297.68 1 295.53 1L295.53 1Q293.38 1 291.88-0.53 290.38-2.05 290.38-4.15L290.38-4.15Q290.38-6.25 291.88-7.78 293.38-9.3 295.53-9.3L295.53-9.3ZM307.53-9.3Q309.68-9.3 311.18-7.78 312.68-6.25 312.68-4.15L312.68-4.15Q312.68-2.05 311.18-0.53 309.68 1 307.53 1L307.53 1Q305.38 1 303.88-0.53 302.38-2.05 302.38-4.15L302.38-4.15Q302.38-6.25 303.88-7.78 305.38-9.3 307.53-9.3L307.53-9.3ZM319.52-9.3Q321.67-9.3 323.17-7.78 324.67-6.25 324.67-4.15L324.67-4.15Q324.67-2.05 323.17-0.53 321.67 1 319.52 1L319.52 1Q317.37 1 315.87-0.53 314.37-2.05 314.37-4.15L314.37-4.15Q314.37-6.25 315.87-7.78 317.37-9.3 319.52-9.3L319.52-9.3ZM331.52-9.3Q333.67-9.3 335.17-7.78 336.67-6.25 336.67-4.15L336.67-4.15Q336.67-2.05 335.17-0.53 333.67 1 331.52 1L331.52 1Q329.37 1 327.87-0.53 326.37-2.05 326.37-4.15L326.37-4.15Q326.37-6.25 327.87-7.78 329.37-9.3 331.52-9.3L331.52-9.3ZM343.52-9.3Q345.67-9.3 347.17-7.78 348.67-6.25 348.67-4.15L348.67-4.15Q348.67-2.05 347.17-0.53 345.67 1 343.52 1L343.52 1Q341.37 1 339.87-0.53 338.37-2.05 338.37-4.15L338.37-4.15Q338.37-6.25 339.87-7.78 341.37-9.3 343.52-9.3L343.52-9.3Z" fill="#000000" data-fill-palette-color="secondary"></path></g></svg></g></svg></g><g transform="matrix(1,0,0,1,0,50.19317896993404)"><svg viewBox="0 0 232.20979200000002 9.665283750261597" height="9.665283750261597" width="232.20979200000002"><g transform="matrix(1,0,0,1,0,0)"><svg width="232.20979200000002" viewBox="1 -35.04999923706055 860.010009765625 35.79999923706055" height="9.665283750261597" data-palette-color="#81ffd9"><path d="M23.55 0L7.8 0 7.8-0.5 9.85-1Q11.9-1.45 11.9-3.5L11.9-3.5 11.9-32 7.65-32Q5.8-32 5-31.03 4.2-30.05 3.3-28.35L3.3-28.35 1.5-24.85 1-24.85 1.25-33 30.1-33 30.3-24.85 29.8-24.85 28-28.35Q27.15-30.05 26.35-31.03 25.55-32 23.7-32L23.7-32 19.45-32 19.45-3.5Q19.45-1.45 21.5-1L21.5-1 23.55-0.5 23.55 0ZM45.3 0L32.35 0 32.35-0.5 33.1-0.7Q34.1-1 34.47-1.6 34.85-2.2 34.85-3.15L34.85-3.15 34.85-18.8Q34.85-19.9 34.47-20.43 34.1-20.95 33.1-21.15L33.1-21.15 32.35-21.35 32.35-21.85 40.95-24.75 41.45-24.25 41.9-19.95 41.9-19.55Q42.6-20.95 43.72-22.13 44.85-23.3 46.22-24.05 47.6-24.8 48.95-24.8L48.95-24.8Q50.85-24.8 51.85-23.75 52.85-22.7 52.85-21.1L52.85-21.1Q52.85-19.4 51.87-18.48 50.9-17.55 49.55-17.55L49.55-17.55Q47.45-17.55 45.85-19.65L45.85-19.65 45.75-19.75Q45.25-20.45 44.6-20.53 43.95-20.6 43.4-19.9L43.4-19.9Q42.9-19.45 42.57-18.82 42.25-18.2 41.95-17.4L41.95-17.4 41.95-3.45Q41.95-1.45 43.7-0.95L43.7-0.95 45.3-0.5 45.3 0ZM63.45 0.75L63.45 0.75Q61.5 0.75 59.87 0 58.25-0.75 57.32-2.43 56.4-4.1 56.45-6.85L56.45-6.85 56.6-19.7Q56.6-20.85 56.2-21.35 55.8-21.85 54.95-22.05L54.95-22.05 54.35-22.25 54.35-22.75 63.3-24.5 63.8-24 63.55-16.9 63.55-4.85Q63.55-3.25 64.47-2.5 65.4-1.75 66.8-1.75L66.8-1.75Q68.2-1.75 69.3-2.15 70.4-2.55 71.5-3.35L71.5-3.35 71.7-19.65Q71.7-20.8 71.34-21.28 71-21.75 70.05-21.95L70.05-21.95 69.55-22.1 69.55-22.6 78.3-24.5 78.8-24 78.65-16.9 78.65-3.35Q78.65-2.25 78.95-1.65 79.25-1.05 80.25-0.65L80.25-0.65 80.75-0.5 80.75 0 72 0.5 71.55-2.45Q69.9-1.1 67.97-0.18 66.05 0.75 63.45 0.75ZM95.29-24.8L95.29-24.8Q98.54-24.8 100.84-23.48 103.14-22.15 104.37-19.88 105.59-17.6 105.59-14.7L105.59-14.7Q105.59-14.15 105.54-13.58 105.49-13 105.34-12.55L105.34-12.55 90.44-12.55Q90.49-7.15 92.37-4.78 94.24-2.4 97.94-2.4L97.94-2.4Q100.44-2.4 101.99-3.2 103.54-4 104.89-5.55L104.89-5.55 105.39-5.1Q103.84-2.35 101.27-0.8 98.69 0.75 95.09 0.75L95.09 0.75Q91.54 0.75 88.79-0.78 86.04-2.3 84.49-5.15 82.94-8 82.94-11.95L82.94-11.95Q82.94-16.05 84.74-18.93 86.54-21.8 89.37-23.3 92.19-24.8 95.29-24.8ZM95.14-23.8L95.14-23.8Q93.69-23.8 92.67-22.93 91.64-22.05 91.07-19.83 90.49-17.6 90.44-13.55L90.44-13.55 98.99-13.55Q99.49-19 98.59-21.4 97.69-23.8 95.14-23.8ZM126.29 0.75L126.29 0.75Q123.39 0.75 121.41-0.9 119.44-2.55 119.44-5.65L119.44-5.65Q119.44-8 121.84-9.98 124.24-11.95 129.39-12.95L129.39-12.95Q130.19-13.1 131.19-13.28 132.19-13.45 133.29-13.65L133.29-13.65 133.29-17.6Q133.29-21 132.46-22.38 131.64-23.75 129.89-23.75L129.89-23.75Q128.69-23.75 127.99-22.98 127.29-22.2 127.09-20.3L127.09-20.3 126.99-19.75Q126.89-17.6 125.94-16.6 124.99-15.6 123.59-15.6L123.59-15.6Q122.29-15.6 121.44-16.4 120.59-17.2 120.59-18.55L120.59-18.55Q120.59-20.6 122.01-22 123.44-23.4 125.79-24.1 128.14-24.8 130.89-24.8L130.89-24.8Q135.34-24.8 137.76-22.63 140.19-20.45 140.19-15.55L140.19-15.55 140.19-4.5Q140.19-2.25 142.29-2.25L142.29-2.25 143.39-2.25 143.84-1.85Q142.89-0.65 141.76 0 140.64 0.65 138.59 0.65L138.59 0.65Q136.39 0.65 135.11-0.38 133.84-1.4 133.44-3.1L133.44-3.1Q131.94-1.5 130.36-0.38 128.79 0.75 126.29 0.75ZM129.34-2.3L129.34-2.3Q130.34-2.3 131.21-2.78 132.09-3.25 133.29-4.25L133.29-4.25 133.29-12.65Q132.79-12.55 132.29-12.45 131.79-12.35 131.14-12.25L131.14-12.25Q128.84-11.65 127.46-10.23 126.09-8.8 126.09-6.4L126.09-6.4Q126.09-4.35 127.04-3.33 127.99-2.3 129.34-2.3ZM156.64 0L144.89 0 144.89-0.5 145.59-0.7Q147.34-1.2 147.34-3.15L147.34-3.15 147.34-18.8Q147.34-19.9 146.99-20.43 146.64-20.95 145.64-21.15L145.64-21.15 144.89-21.35 144.89-21.85 153.44-24.75 153.94-24.25 154.34-21.25Q156.09-22.8 158.29-23.8 160.49-24.8 162.64-24.8L162.64-24.8Q165.94-24.8 167.71-23 169.49-21.2 169.49-17.5L169.49-17.5 169.49-3.1Q169.49-1.15 171.39-0.65L171.39-0.65 171.84-0.5 171.84 0 160.04 0 160.04-0.5 160.69-0.7Q162.44-1.25 162.44-3.15L162.44-3.15 162.44-19.1Q162.44-22.3 159.24-22.3L159.24-22.3Q157.04-22.3 154.44-20.1L154.44-20.1 154.44-3.1Q154.44-1.15 156.19-0.65L156.19-0.65 156.64-0.5 156.64 0ZM184.38 0.75L184.38 0.75Q181.43 0.75 179.08-0.58 176.73-1.9 175.36-4.67 173.98-7.45 173.98-11.8L173.98-11.8Q173.98-16.2 175.53-19.07 177.08-21.95 179.63-23.38 182.18-24.8 185.18-24.8L185.18-24.8Q186.93-24.8 188.53-24.45 190.13-24.1 191.38-23.4L191.38-23.4 191.38-29.9Q191.38-30.95 191.06-31.45 190.73-31.95 189.68-32.15L189.68-32.15 188.73-32.35 188.73-32.85 197.83-35.05 198.38-34.6 198.18-27.6 198.18-3.15Q198.18-2.15 198.53-1.53 198.88-0.9 199.83-0.65L199.83-0.65 200.28-0.5 200.28 0 191.73 0.55 191.28-1.25Q189.93-0.35 188.21 0.2 186.48 0.75 184.38 0.75ZM187.28-1.1L187.28-1.1Q189.38-1.1 191.13-2.35L191.13-2.35 191.13-22.2Q189.28-23.4 187.33-23.4L187.33-23.4Q184.93-23.4 183.23-20.63 181.53-17.85 181.53-11.9L181.53-11.9Q181.53-5.95 183.13-3.53 184.73-1.1 187.28-1.1ZM222.43 0.75L222.43 0.75Q220.48 0.75 218.85 0 217.23-0.75 216.3-2.43 215.38-4.1 215.43-6.85L215.43-6.85 215.58-19.7Q215.58-20.85 215.18-21.35 214.78-21.85 213.93-22.05L213.93-22.05 213.33-22.25 213.33-22.75 222.28-24.5 222.78-24 222.53-16.9 222.53-4.85Q222.53-3.25 223.45-2.5 224.38-1.75 225.78-1.75L225.78-1.75Q227.18-1.75 228.28-2.15 229.38-2.55 230.48-3.35L230.48-3.35 230.68-19.65Q230.68-20.8 230.33-21.28 229.98-21.75 229.03-21.95L229.03-21.95 228.53-22.1 228.53-22.6 237.28-24.5 237.78-24 237.63-16.9 237.63-3.35Q237.63-2.25 237.93-1.65 238.23-1.05 239.23-0.65L239.23-0.65 239.73-0.5 239.73 0 230.98 0.5 230.53-2.45Q228.88-1.1 226.95-0.18 225.03 0.75 222.43 0.75ZM253.48 0L241.73 0 241.73-0.5 242.43-0.7Q244.18-1.2 244.18-3.15L244.18-3.15 244.18-18.8Q244.18-19.9 243.83-20.43 243.48-20.95 242.48-21.15L242.48-21.15 241.73-21.35 241.73-21.85 250.28-24.75 250.78-24.25 251.18-21.25Q252.93-22.8 255.13-23.8 257.33-24.8 259.48-24.8L259.48-24.8Q262.78-24.8 264.55-23 266.33-21.2 266.33-17.5L266.33-17.5 266.33-3.1Q266.33-1.15 268.23-0.65L268.23-0.65 268.68-0.5 268.68 0 256.88 0 256.88-0.5 257.53-0.7Q259.28-1.25 259.28-3.15L259.28-3.15 259.28-19.1Q259.28-22.3 256.08-22.3L256.08-22.3Q253.88-22.3 251.28-20.1L251.28-20.1 251.28-3.1Q251.28-1.15 253.03-0.65L253.03-0.65 253.48-0.5 253.48 0ZM279.97-1.15L279.17 0.65 270.72 0 270.72-0.5 271.22-0.6Q273.17-1.05 273.17-3.1L273.17-3.1 273.17-29.85Q273.17-30.9 272.85-31.45 272.52-32 271.52-32.2L271.52-32.2 270.82-32.4 270.82-32.9 279.72-35.05 280.32-34.6 280.12-27.55 280.12-22.5Q281.77-23.65 283.72-24.23 285.67-24.8 287.67-24.8L287.67-24.8Q290.52-24.8 292.72-23.48 294.92-22.15 296.2-19.38 297.47-16.6 297.47-12.25L297.47-12.25Q297.47-7.9 296.05-5.03 294.62-2.15 292.25-0.7 289.87 0.75 287.02 0.75L287.02 0.75Q285.17 0.75 283.3 0.25 281.42-0.25 279.97-1.15L279.97-1.15ZM284.52-0.95L284.52-0.95Q286.12-0.95 287.32-1.95 288.52-2.95 289.22-5.38 289.92-7.8 289.92-12.05L289.92-12.05Q289.92-16.3 289.27-18.6 288.62-20.9 287.45-21.8 286.27-22.7 284.62-22.7L284.62-22.7Q282.27-22.7 280.27-21.4L280.27-21.4 280.27-2.2Q281.22-1.6 282.22-1.28 283.22-0.95 284.52-0.95ZM305.67-27.4L305.67-27.4Q303.97-27.4 302.8-28.48 301.62-29.55 301.62-31.2L301.62-31.2Q301.62-32.9 302.8-33.95 303.97-35 305.67-35L305.67-35Q307.37-35 308.52-33.95 309.67-32.9 309.67-31.2L309.67-31.2Q309.67-29.55 308.52-28.48 307.37-27.4 305.67-27.4ZM311.47 0L299.77 0 299.77-0.5 300.47-0.7Q301.47-1 301.85-1.6 302.22-2.2 302.22-3.2L302.22-3.2 302.22-18.85Q302.22-19.9 301.85-20.43 301.47-20.95 300.47-21.15L300.47-21.15 299.77-21.3 299.77-21.8 308.92-24.75 309.42-24.25 309.27-17.15 309.27-3.15Q309.27-2.15 309.65-1.55 310.02-0.95 310.97-0.65L310.97-0.65 311.47-0.5 311.47 0ZM320.97 0.75L320.97 0.75Q318.07 0.75 316.09-0.9 314.12-2.55 314.12-5.65L314.12-5.65Q314.12-8 316.52-9.98 318.92-11.95 324.07-12.95L324.07-12.95Q324.87-13.1 325.87-13.28 326.87-13.45 327.97-13.65L327.97-13.65 327.97-17.6Q327.97-21 327.14-22.38 326.32-23.75 324.57-23.75L324.57-23.75Q323.37-23.75 322.67-22.98 321.97-22.2 321.77-20.3L321.77-20.3 321.67-19.75Q321.57-17.6 320.62-16.6 319.67-15.6 318.27-15.6L318.27-15.6Q316.97-15.6 316.12-16.4 315.27-17.2 315.27-18.55L315.27-18.55Q315.27-20.6 316.69-22 318.12-23.4 320.47-24.1 322.82-24.8 325.57-24.8L325.57-24.8Q330.02-24.8 332.44-22.63 334.87-20.45 334.87-15.55L334.87-15.55 334.87-4.5Q334.87-2.25 336.97-2.25L336.97-2.25 338.07-2.25 338.52-1.85Q337.57-0.65 336.44 0 335.32 0.65 333.27 0.65L333.27 0.65Q331.07 0.65 329.79-0.38 328.52-1.4 328.12-3.1L328.12-3.1Q326.62-1.5 325.04-0.38 323.47 0.75 320.97 0.75ZM324.02-2.3L324.02-2.3Q325.02-2.3 325.89-2.78 326.77-3.25 327.97-4.25L327.97-4.25 327.97-12.65Q327.47-12.55 326.97-12.45 326.47-12.35 325.82-12.25L325.82-12.25Q323.52-11.65 322.14-10.23 320.77-8.8 320.77-6.4L320.77-6.4Q320.77-4.35 321.72-3.33 322.67-2.3 324.02-2.3ZM348.21 0.75L348.21 0.75Q345.76 0.75 343.81 0.18 341.87-0.4 340.21-1.25L340.21-1.25 340.26-7.2 340.76-7.2 342.46-4.2Q343.56-2.2 344.89-1.23 346.21-0.25 348.26-0.25L348.26-0.25Q350.67-0.25 352.14-1.33 353.62-2.4 353.62-4.2L353.62-4.2Q353.62-5.85 352.56-6.9 351.51-7.95 348.67-8.8L348.67-8.8 346.56-9.45Q343.51-10.35 341.76-12.25 340.01-14.15 340.01-16.9L340.01-16.9Q340.01-20.2 342.62-22.5 345.21-24.8 350.06-24.8L350.06-24.8Q352.01-24.8 353.74-24.38 355.46-23.95 357.06-23.1L357.06-23.1 356.76-17.7 356.26-17.7 354.51-20.8Q353.56-22.45 352.64-23.13 351.71-23.8 349.87-23.8L349.87-23.8Q348.17-23.8 346.67-22.85 345.17-21.9 345.17-20.15L345.17-20.15Q345.17-18.45 346.44-17.45 347.71-16.45 350.21-15.6L350.21-15.6 352.46-14.95Q356.06-13.85 357.62-11.93 359.17-10 359.17-7.3L359.17-7.3Q359.17-3.65 356.29-1.45 353.42 0.75 348.21 0.75ZM373.91-24.8L373.91-24.8Q377.16-24.8 379.46-23.48 381.76-22.15 382.99-19.88 384.21-17.6 384.21-14.7L384.21-14.7Q384.21-14.15 384.16-13.58 384.11-13 383.96-12.55L383.96-12.55 369.06-12.55Q369.11-7.15 370.99-4.78 372.86-2.4 376.56-2.4L376.56-2.4Q379.06-2.4 380.61-3.2 382.16-4 383.51-5.55L383.51-5.55 384.01-5.1Q382.46-2.35 379.89-0.8 377.31 0.75 373.71 0.75L373.71 0.75Q370.16 0.75 367.41-0.78 364.66-2.3 363.11-5.15 361.56-8 361.56-11.95L361.56-11.95Q361.56-16.05 363.36-18.93 365.16-21.8 367.99-23.3 370.81-24.8 373.91-24.8ZM373.76-23.8L373.76-23.8Q372.31-23.8 371.29-22.93 370.26-22.05 369.69-19.83 369.11-17.6 369.06-13.55L369.06-13.55 377.61-13.55Q378.11-19 377.21-21.4 376.31-23.8 373.76-23.8ZM397.31 0.75L397.31 0.75Q394.36 0.75 392.01-0.58 389.66-1.9 388.29-4.67 386.91-7.45 386.91-11.8L386.91-11.8Q386.91-16.2 388.46-19.07 390.01-21.95 392.56-23.38 395.11-24.8 398.11-24.8L398.11-24.8Q399.86-24.8 401.46-24.45 403.06-24.1 404.31-23.4L404.31-23.4 404.31-29.9Q404.31-30.95 403.99-31.45 403.66-31.95 402.61-32.15L402.61-32.15 401.66-32.35 401.66-32.85 410.76-35.05 411.31-34.6 411.11-27.6 411.11-3.15Q411.11-2.15 411.46-1.53 411.81-0.9 412.76-0.65L412.76-0.65 413.21-0.5 413.21 0 404.66 0.55 404.21-1.25Q402.86-0.35 401.14 0.2 399.41 0.75 397.31 0.75ZM400.21-1.1L400.21-1.1Q402.31-1.1 404.06-2.35L404.06-2.35 404.06-22.2Q402.21-23.4 400.26-23.4L400.26-23.4Q397.86-23.4 396.16-20.63 394.46-17.85 394.46-11.9L394.46-11.9Q394.46-5.95 396.06-3.53 397.66-1.1 400.21-1.1ZM433.61 0.75L433.61 0.75Q430.7 0.75 428.73-0.9 426.75-2.55 426.75-5.65L426.75-5.65Q426.75-8 429.16-9.98 431.56-11.95 436.7-12.95L436.7-12.95Q437.5-13.1 438.5-13.28 439.5-13.45 440.61-13.65L440.61-13.65 440.61-17.6Q440.61-21 439.78-22.38 438.95-23.75 437.2-23.75L437.2-23.75Q436-23.75 435.31-22.98 434.61-22.2 434.41-20.3L434.41-20.3 434.31-19.75Q434.2-17.6 433.25-16.6 432.31-15.6 430.91-15.6L430.91-15.6Q429.61-15.6 428.75-16.4 427.91-17.2 427.91-18.55L427.91-18.55Q427.91-20.6 429.33-22 430.75-23.4 433.11-24.1 435.45-24.8 438.2-24.8L438.2-24.8Q442.66-24.8 445.08-22.63 447.5-20.45 447.5-15.55L447.5-15.55 447.5-4.5Q447.5-2.25 449.61-2.25L449.61-2.25 450.7-2.25 451.16-1.85Q450.2-0.65 449.08 0 447.95 0.65 445.91 0.65L445.91 0.65Q443.7 0.65 442.43-0.38 441.16-1.4 440.75-3.1L440.75-3.1Q439.25-1.5 437.68-0.38 436.11 0.75 433.61 0.75ZM436.66-2.3L436.66-2.3Q437.66-2.3 438.53-2.78 439.41-3.25 440.61-4.25L440.61-4.25 440.61-12.65Q440.11-12.55 439.61-12.45 439.11-12.35 438.45-12.25L438.45-12.25Q436.16-11.65 434.78-10.23 433.41-8.8 433.41-6.4L433.41-6.4Q433.41-4.35 434.36-3.33 435.31-2.3 436.66-2.3ZM463.95 0L452.2 0 452.2-0.5 452.9-0.7Q454.65-1.2 454.65-3.15L454.65-3.15 454.65-18.8Q454.65-19.9 454.3-20.43 453.95-20.95 452.95-21.15L452.95-21.15 452.2-21.35 452.2-21.85 460.75-24.75 461.25-24.25 461.65-21.25Q463.4-22.8 465.6-23.8 467.8-24.8 469.95-24.8L469.95-24.8Q473.25-24.8 475.03-23 476.8-21.2 476.8-17.5L476.8-17.5 476.8-3.1Q476.8-1.15 478.7-0.65L478.7-0.65 479.15-0.5 479.15 0 467.35 0 467.35-0.5 468-0.7Q469.75-1.25 469.75-3.15L469.75-3.15 469.75-19.1Q469.75-22.3 466.55-22.3L466.55-22.3Q464.35-22.3 461.75-20.1L461.75-20.1 461.75-3.1Q461.75-1.15 463.5-0.65L463.5-0.65 463.95-0.5 463.95 0ZM491.7 0.75L491.7 0.75Q488.75 0.75 486.4-0.58 484.05-1.9 482.67-4.67 481.3-7.45 481.3-11.8L481.3-11.8Q481.3-16.2 482.85-19.07 484.4-21.95 486.95-23.38 489.5-24.8 492.5-24.8L492.5-24.8Q494.25-24.8 495.85-24.45 497.45-24.1 498.7-23.4L498.7-23.4 498.7-29.9Q498.7-30.95 498.37-31.45 498.05-31.95 497-32.15L497-32.15 496.05-32.35 496.05-32.85 505.15-35.05 505.7-34.6 505.5-27.6 505.5-3.15Q505.5-2.15 505.85-1.53 506.2-0.9 507.15-0.65L507.15-0.65 507.6-0.5 507.6 0 499.05 0.55 498.6-1.25Q497.25-0.35 495.52 0.2 493.8 0.75 491.7 0.75ZM494.6-1.1L494.6-1.1Q496.7-1.1 498.45-2.35L498.45-2.35 498.45-22.2Q496.6-23.4 494.65-23.4L494.65-23.4Q492.25-23.4 490.55-20.63 488.85-17.85 488.85-11.9L488.85-11.9Q488.85-5.95 490.45-3.53 492.05-1.1 494.6-1.1ZM529.34 0.75L529.34 0.75Q526.89 0.75 524.94 0.18 522.99-0.4 521.34-1.25L521.34-1.25 521.39-7.2 521.89-7.2 523.59-4.2Q524.69-2.2 526.02-1.23 527.34-0.25 529.39-0.25L529.39-0.25Q531.79-0.25 533.27-1.33 534.74-2.4 534.74-4.2L534.74-4.2Q534.74-5.85 533.69-6.9 532.64-7.95 529.79-8.8L529.79-8.8 527.69-9.45Q524.64-10.35 522.89-12.25 521.14-14.15 521.14-16.9L521.14-16.9Q521.14-20.2 523.74-22.5 526.34-24.8 531.19-24.8L531.19-24.8Q533.14-24.8 534.87-24.38 536.59-23.95 538.19-23.1L538.19-23.1 537.89-17.7 537.39-17.7 535.64-20.8Q534.69-22.45 533.77-23.13 532.84-23.8 530.99-23.8L530.99-23.8Q529.29-23.8 527.79-22.85 526.29-21.9 526.29-20.15L526.29-20.15Q526.29-18.45 527.57-17.45 528.84-16.45 531.34-15.6L531.34-15.6 533.59-14.95Q537.19-13.85 538.74-11.93 540.29-10 540.29-7.3L540.29-7.3Q540.29-3.65 537.42-1.45 534.54 0.75 529.34 0.75ZM551.99 0.75L551.99 0.75Q548.79 0.75 547.02-0.85 545.24-2.45 545.24-5.95L545.24-5.95 545.24-23.05 541.79-23.05 541.79-23.55 542.99-23.75Q544.54-24.1 545.67-24.75 546.79-25.4 547.89-26.5L547.89-26.5 551.99-31.05 552.49-31.05 552.34-24.05 557.94-24.05 557.94-23.05 552.29-23.05 552.29-5.05Q552.29-3.3 553.07-2.4 553.84-1.5 555.04-1.5L555.04-1.5Q556.09-1.5 556.89-2.02 557.69-2.55 558.49-3.45L558.49-3.45 558.99-2.95Q557.99-1.25 556.24-0.25 554.49 0.75 551.99 0.75ZM567.84 0.75L567.84 0.75Q564.94 0.75 562.96-0.9 560.99-2.55 560.99-5.65L560.99-5.65Q560.99-8 563.39-9.98 565.79-11.95 570.94-12.95L570.94-12.95Q571.74-13.1 572.74-13.28 573.74-13.45 574.84-13.65L574.84-13.65 574.84-17.6Q574.84-21 574.01-22.38 573.19-23.75 571.44-23.75L571.44-23.75Q570.24-23.75 569.54-22.98 568.84-22.2 568.64-20.3L568.64-20.3 568.54-19.75Q568.44-17.6 567.49-16.6 566.54-15.6 565.14-15.6L565.14-15.6Q563.84-15.6 562.99-16.4 562.14-17.2 562.14-18.55L562.14-18.55Q562.14-20.6 563.56-22 564.99-23.4 567.34-24.1 569.69-24.8 572.44-24.8L572.44-24.8Q576.89-24.8 579.31-22.63 581.74-20.45 581.74-15.55L581.74-15.55 581.74-4.5Q581.74-2.25 583.84-2.25L583.84-2.25 584.94-2.25 585.39-1.85Q584.44-0.65 583.31 0 582.19 0.65 580.14 0.65L580.14 0.65Q577.94 0.65 576.66-0.38 575.39-1.4 574.99-3.1L574.99-3.1Q573.49-1.5 571.91-0.38 570.34 0.75 567.84 0.75ZM570.89-2.3L570.89-2.3Q571.89-2.3 572.76-2.78 573.64-3.25 574.84-4.25L574.84-4.25 574.84-12.65Q574.34-12.55 573.84-12.45 573.34-12.35 572.69-12.25L572.69-12.25Q570.39-11.65 569.01-10.23 567.64-8.8 567.64-6.4L567.64-6.4Q567.64-4.35 568.59-3.33 569.54-2.3 570.89-2.3ZM595.94 0.75L595.94 0.75Q592.74 0.75 590.96-0.85 589.19-2.45 589.19-5.95L589.19-5.95 589.19-23.05 585.74-23.05 585.74-23.55 586.94-23.75Q588.49-24.1 589.61-24.75 590.74-25.4 591.84-26.5L591.84-26.5 595.94-31.05 596.44-31.05 596.29-24.05 601.89-24.05 601.89-23.05 596.24-23.05 596.24-5.05Q596.24-3.3 597.01-2.4 597.79-1.5 598.99-1.5L598.99-1.5Q600.04-1.5 600.84-2.02 601.64-2.55 602.44-3.45L602.44-3.45 602.94-2.95Q601.94-1.25 600.19-0.25 598.44 0.75 595.94 0.75ZM610.48-27.4L610.48-27.4Q608.78-27.4 607.61-28.48 606.43-29.55 606.43-31.2L606.43-31.2Q606.43-32.9 607.61-33.95 608.78-35 610.48-35L610.48-35Q612.18-35 613.33-33.95 614.48-32.9 614.48-31.2L614.48-31.2Q614.48-29.55 613.33-28.48 612.18-27.4 610.48-27.4ZM616.28 0L604.58 0 604.58-0.5 605.28-0.7Q606.28-1 606.66-1.6 607.03-2.2 607.03-3.2L607.03-3.2 607.03-18.85Q607.03-19.9 606.66-20.43 606.28-20.95 605.28-21.15L605.28-21.15 604.58-21.3 604.58-21.8 613.73-24.75 614.23-24.25 614.08-17.15 614.08-3.15Q614.08-2.15 614.46-1.55 614.83-0.95 615.78-0.65L615.78-0.65 616.28-0.5 616.28 0ZM627.13 0.75L627.13 0.75Q624.68 0.75 622.73 0.18 620.78-0.4 619.13-1.25L619.13-1.25 619.18-7.2 619.68-7.2 621.38-4.2Q622.48-2.2 623.81-1.23 625.13-0.25 627.18-0.25L627.18-0.25Q629.58-0.25 631.06-1.33 632.53-2.4 632.53-4.2L632.53-4.2Q632.53-5.85 631.48-6.9 630.43-7.95 627.58-8.8L627.58-8.8 625.48-9.45Q622.43-10.35 620.68-12.25 618.93-14.15 618.93-16.9L618.93-16.9Q618.93-20.2 621.53-22.5 624.13-24.8 628.98-24.8L628.98-24.8Q630.93-24.8 632.66-24.38 634.38-23.95 635.98-23.1L635.98-23.1 635.68-17.7 635.18-17.7 633.43-20.8Q632.48-22.45 631.56-23.13 630.63-23.8 628.78-23.8L628.78-23.8Q627.08-23.8 625.58-22.85 624.08-21.9 624.08-20.15L624.08-20.15Q624.08-18.45 625.36-17.45 626.63-16.45 629.13-15.6L629.13-15.6 631.38-14.95Q634.98-13.85 636.53-11.93 638.08-10 638.08-7.3L638.08-7.3Q638.08-3.65 635.21-1.45 632.33 0.75 627.13 0.75ZM649.78 0.75L649.78 0.75Q646.58 0.75 644.8-0.85 643.03-2.45 643.03-5.95L643.03-5.95 643.03-23.05 639.58-23.05 639.58-23.55 640.78-23.75Q642.33-24.1 643.45-24.75 644.58-25.4 645.68-26.5L645.68-26.5 649.78-31.05 650.28-31.05 650.13-24.05 655.73-24.05 655.73-23.05 650.08-23.05 650.08-5.05Q650.08-3.3 650.85-2.4 651.63-1.5 652.83-1.5L652.83-1.5Q653.88-1.5 654.68-2.02 655.48-2.55 656.28-3.45L656.28-3.45 656.78-2.95Q655.78-1.25 654.03-0.25 652.28 0.75 649.78 0.75ZM664.33-27.4L664.33-27.4Q662.63-27.4 661.45-28.48 660.28-29.55 660.28-31.2L660.28-31.2Q660.28-32.9 661.45-33.95 662.63-35 664.33-35L664.33-35Q666.03-35 667.18-33.95 668.33-32.9 668.33-31.2L668.33-31.2Q668.33-29.55 667.18-28.48 666.03-27.4 664.33-27.4ZM670.13 0L658.43 0 658.43-0.5 659.13-0.7Q660.13-1 660.5-1.6 660.88-2.2 660.88-3.2L660.88-3.2 660.88-18.85Q660.88-19.9 660.5-20.43 660.13-20.95 659.13-21.15L659.13-21.15 658.43-21.3 658.43-21.8 667.58-24.75 668.08-24.25 667.93-17.15 667.93-3.15Q667.93-2.15 668.3-1.55 668.68-0.95 669.63-0.65L669.63-0.65 670.13-0.5 670.13 0ZM684.72 0.75L684.72 0.75Q681.32 0.75 678.55-0.73 675.77-2.2 674.15-5.03 672.52-7.85 672.52-11.95L672.52-11.95Q672.52-16 674.3-18.88 676.07-21.75 679.05-23.28 682.02-24.8 685.57-24.8L685.57-24.8Q688.47-24.8 690.47-23.85 692.47-22.9 693.52-21.38 694.57-19.85 694.57-18.2L694.57-18.2Q694.57-16.8 693.72-16.03 692.87-15.25 691.52-15.25L691.52-15.25Q690.07-15.25 689.17-16.3 688.27-17.35 688.12-19.05L688.12-19.05Q688.07-20.15 688.17-20.93 688.27-21.7 688.17-22.5L688.17-22.5Q687.97-23.35 687.55-23.63 687.12-23.9 686.37-23.9L686.37-23.9Q683.32-23.9 681.65-21.25 679.97-18.6 679.97-12.8L679.97-12.8Q679.97-7.75 681.85-5.08 683.72-2.4 687.62-2.4L687.62-2.4Q689.97-2.4 691.42-3.25 692.87-4.1 694.22-5.8L694.22-5.8 694.72-5.4Q693.47-2.45 690.87-0.85 688.27 0.75 684.72 0.75ZM704.32 0.75L704.32 0.75Q701.42 0.75 699.45-0.9 697.47-2.55 697.47-5.65L697.47-5.65Q697.47-8 699.87-9.98 702.27-11.95 707.42-12.95L707.42-12.95Q708.22-13.1 709.22-13.28 710.22-13.45 711.32-13.65L711.32-13.65 711.32-17.6Q711.32-21 710.5-22.38 709.67-23.75 707.92-23.75L707.92-23.75Q706.72-23.75 706.02-22.98 705.32-22.2 705.12-20.3L705.12-20.3 705.02-19.75Q704.92-17.6 703.97-16.6 703.02-15.6 701.62-15.6L701.62-15.6Q700.32-15.6 699.47-16.4 698.62-17.2 698.62-18.55L698.62-18.55Q698.62-20.6 700.05-22 701.47-23.4 703.82-24.1 706.17-24.8 708.92-24.8L708.92-24.8Q713.37-24.8 715.8-22.63 718.22-20.45 718.22-15.55L718.22-15.55 718.22-4.5Q718.22-2.25 720.32-2.25L720.32-2.25 721.42-2.25 721.87-1.85Q720.92-0.65 719.8 0 718.67 0.65 716.62 0.65L716.62 0.65Q714.42 0.65 713.15-0.38 711.87-1.4 711.47-3.1L711.47-3.1Q709.97-1.5 708.4-0.38 706.82 0.75 704.32 0.75ZM707.37-2.3L707.37-2.3Q708.37-2.3 709.25-2.78 710.12-3.25 711.32-4.25L711.32-4.25 711.32-12.65Q710.82-12.55 710.32-12.45 709.82-12.35 709.17-12.25L709.17-12.25Q706.87-11.65 705.5-10.23 704.12-8.8 704.12-6.4L704.12-6.4Q704.12-4.35 705.07-3.33 706.02-2.3 707.37-2.3ZM735.02 0L723.07 0 723.07-0.5 723.67-0.7Q725.47-1.3 725.47-3.2L725.47-3.2 725.47-29.95Q725.47-30.95 725.07-31.48 724.67-32 723.67-32.25L723.67-32.25 723.02-32.4 723.02-32.9 732.17-35.05 732.77-34.6 732.57-27.6 732.57-10.5Q732.57-8.65 732.59-6.83 732.62-5 732.62-3.2L732.62-3.2Q732.62-2.2 733.02-1.58 733.42-0.95 734.37-0.65L734.37-0.65 735.02-0.5 735.02 0ZM759.86 0L748.11 0 748.11-0.5 748.81-0.7Q750.56-1.2 750.56-3.15L750.56-3.15 750.56-18.8Q750.56-19.9 750.21-20.43 749.86-20.95 748.86-21.15L748.86-21.15 748.11-21.35 748.11-21.85 756.66-24.75 757.16-24.25 757.56-21.25Q759.31-22.8 761.51-23.8 763.71-24.8 765.86-24.8L765.86-24.8Q769.16-24.8 770.94-23 772.71-21.2 772.71-17.5L772.71-17.5 772.71-3.1Q772.71-1.15 774.61-0.65L774.61-0.65 775.06-0.5 775.06 0 763.26 0 763.26-0.5 763.91-0.7Q765.66-1.25 765.66-3.15L765.66-3.15 765.66-19.1Q765.66-22.3 762.46-22.3L762.46-22.3Q760.26-22.3 757.66-20.1L757.66-20.1 757.66-3.1Q757.66-1.15 759.41-0.65L759.41-0.65 759.86-0.5 759.86 0ZM789.56-24.8L789.56-24.8Q792.81-24.8 795.11-23.48 797.41-22.15 798.64-19.88 799.86-17.6 799.86-14.7L799.86-14.7Q799.86-14.15 799.81-13.58 799.76-13 799.61-12.55L799.61-12.55 784.71-12.55Q784.76-7.15 786.64-4.78 788.51-2.4 792.21-2.4L792.21-2.4Q794.71-2.4 796.26-3.2 797.81-4 799.16-5.55L799.16-5.55 799.66-5.1Q798.11-2.35 795.54-0.8 792.96 0.75 789.36 0.75L789.36 0.75Q785.81 0.75 783.06-0.78 780.31-2.3 778.76-5.15 777.21-8 777.21-11.95L777.21-11.95Q777.21-16.05 779.01-18.93 780.81-21.8 783.64-23.3 786.46-24.8 789.56-24.8ZM789.41-23.8L789.41-23.8Q787.96-23.8 786.94-22.93 785.91-22.05 785.34-19.83 784.76-17.6 784.71-13.55L784.71-13.55 793.26-13.55Q793.76-19 792.86-21.4 791.96-23.8 789.41-23.8ZM815.51 0.15L812.61 0.15 804.91-21Q804.36-22.6 802.71-23.25L802.71-23.25 801.86-23.55 801.86-24.05 814.11-24.05 814.11-23.55 813.36-23.35Q811.41-22.75 812.06-20.95L812.06-20.95 816.71-6.8 820.86-17.8 819.91-20.65Q819.56-21.75 819.18-22.33 818.81-22.9 818.21-23.15L818.21-23.15 817.36-23.55 817.36-24.05 827.71-24.05 827.71-23.55 827.01-23.25Q826.26-22.95 826.11-22.45 825.96-21.95 826.31-20.95L826.31-20.95 830.91-7.05 835.66-20.85Q836.36-22.75 834.91-23.25L834.91-23.25 833.81-23.55 833.81-24.05 839.81-24.05 839.81-23.55 838.61-23.2Q837.76-22.95 837.38-22.43 837.01-21.9 836.71-21L836.71-21 829.51 0.15 826.96 0.15 821.41-16.2 815.51 0.15ZM850.06 0.75L850.06 0.75Q847.61 0.75 845.66 0.18 843.71-0.4 842.06-1.25L842.06-1.25 842.11-7.2 842.61-7.2 844.31-4.2Q845.41-2.2 846.73-1.23 848.06-0.25 850.11-0.25L850.11-0.25Q852.51-0.25 853.98-1.33 855.46-2.4 855.46-4.2L855.46-4.2Q855.46-5.85 854.41-6.9 853.36-7.95 850.51-8.8L850.51-8.8 848.41-9.45Q845.36-10.35 843.61-12.25 841.86-14.15 841.86-16.9L841.86-16.9Q841.86-20.2 844.46-22.5 847.06-24.8 851.91-24.8L851.91-24.8Q853.86-24.8 855.58-24.38 857.31-23.95 858.91-23.1L858.91-23.1 858.61-17.7 858.11-17.7 856.36-20.8Q855.41-22.45 854.48-23.13 853.56-23.8 851.71-23.8L851.71-23.8Q850.01-23.8 848.51-22.85 847.01-21.9 847.01-20.15L847.01-20.15Q847.01-18.45 848.28-17.45 849.56-16.45 852.06-15.6L852.06-15.6 854.31-14.95Q857.91-13.85 859.46-11.93 861.01-10 861.01-7.3L861.01-7.3Q861.01-3.65 858.13-1.45 855.26 0.75 850.06 0.75Z" opacity="1" transform="matrix(1,0,0,1,0,0)" fill="#000000" class="undefined-text-1" data-fill-palette-color="secondary" id="text-1"></path></svg></g></svg></g></svg></g></svg></g><g transform="matrix(1,0,0,1,418.3545850221845,0)"><svg viewBox="0 0 82.5603432528449 82.72439547931037" height="82.72439547931037" width="82.5603432528449"><g><svg xmlns="http://www.w3.org/2000/svg" xmlns:xlink="http://www.w3.org/1999/xlink" version="1.1" x="0" y="0" viewBox="17.953956604003906 17.006000518798828 477.0400695800781 477.98797607421875" style="enable-background:new 0 0 512 512;" xml:space="preserve" height="82.72439547931037" width="82.5603432528449" class="icon-icon-0" data-fill-palette-color="accent" id="icon-0"><g fill="#81ffd9" data-fill-palette-color="accent"><g fill="#81ffd9" data-fill-palette-color="accent"><g fill="#81ffd9" data-fill-palette-color="accent"><path d="M255.98 494.994c-59.852 0-117.186-22.389-161.44-63.041-43.978-40.398-71.162-95.146-76.544-154.16-0.502-5.5 3.55-10.365 9.05-10.867 5.488-0.504 10.365 3.55 10.867 9.051C48.092 387.575 143.878 474.994 255.98 474.994c120.765 0 219.014-98.248 219.014-219.012 0-45.271-13.81-88.773-39.936-125.801-3.184-4.513-2.106-10.752 2.406-13.936 4.512-3.184 10.752-2.106 13.936 2.406 28.52 40.42 43.594 87.909 43.594 137.332C494.994 387.773 387.773 494.994 255.98 494.994zM28.849 237.012c-0.421 0-0.847-0.026-1.275-0.081-5.479-0.697-9.354-5.704-8.657-11.183C34.062 106.746 135.977 17.006 255.98 17.006c59.628 0 116.805 22.231 160.996 62.601 4.078 3.725 4.364 10.05 0.639 14.128-3.725 4.078-10.05 4.364-14.127 0.639C362.99 57.379 310.604 37.006 255.98 37.006c-109.96 0-203.347 82.227-217.224 191.267C38.114 233.323 33.809 237.012 28.849 237.012z" fill="#000000" data-fill-palette-color="accent"></path></g><g fill="#81ffd9" data-fill-palette-color="accent"><path d="M255.98 468.773c-0.001 0-0.001 0-0.003 0-3.172-0.001-6.156-1.507-8.041-4.059l-26.362-35.692-38.008 22.872c-2.719 1.635-6.052 1.884-8.982 0.671-2.931-1.214-5.112-3.746-5.878-6.825l-10.715-43.068-24.675 3.705c-5.463 0.823-10.554-2.942-11.375-8.403-0.82-5.462 2.942-10.554 8.404-11.374l33.669-5.057c5.101-0.776 9.945 2.471 11.189 7.475l9.644 38.764 34.209-20.586c4.418-2.66 10.135-1.521 13.2 2.627l23.729 32.126 23.76-32.13c3.065-4.146 8.778-5.281 13.196-2.623l34.209 20.586 9.644-38.764c1.244-5.004 6.086-8.25 11.189-7.475l39.49 5.931-5.933-39.49c-0.767-5.099 2.471-9.944 7.475-11.189l37.061-9.22c5.363-1.337 10.784 1.93 12.118 7.29 1.333 5.359-1.931 10.785-7.29 12.118l-28.234 7.024 6.592 43.881c0.472 3.138-0.574 6.313-2.817 8.557-2.244 2.242-5.414 3.292-8.557 2.817l-43.881-6.59-10.715 43.068c-0.766 3.079-2.947 5.611-5.878 6.825-2.934 1.213-6.267 0.964-8.982-0.671L290.42 429.02l-26.399 35.699C262.136 467.269 259.151 468.773 255.98 468.773zM117.182 379.133c-0.495 0-0.994-0.036-1.498-0.112-5.461-0.82-9.224-5.912-8.404-11.374l2.049-13.64L66.26 343.292c-3.079-0.766-5.611-2.947-6.825-5.878s-0.965-6.264 0.671-8.982l22.873-38.012-35.699-26.397c-2.551-1.886-4.056-4.871-4.055-8.043 0.001-3.172 1.507-6.156 4.059-8.042l35.692-26.363-22.87-38.008c-1.636-2.718-1.885-6.051-0.671-8.982 1.214-2.931 3.747-5.112 6.825-5.878l43.069-10.714-6.591-43.88c-0.471-3.138 0.575-6.313 2.818-8.557 2.243-2.243 5.419-3.289 8.556-2.818l43.879 6.591 9.72-39.069c1.333-5.359 6.76-8.623 12.118-7.29 5.359 1.333 8.624 6.759 7.29 12.118l-11.915 47.896c-1.245 5.004-6.095 8.237-11.189 7.475l-39.488-5.932 5.931 39.489c0.766 5.099-2.471 9.945-7.475 11.189l-38.764 9.644 20.584 34.209c2.659 4.419 1.521 10.135-2.627 13.2L70.05 255.986l32.13 23.758c4.146 3.065 5.281 8.779 2.623 13.197L84.218 327.15l38.764 9.644c5.004 1.245 8.241 6.09 7.475 11.189l-3.399 22.634C126.313 375.575 122.047 379.133 117.182 379.133zM425.438 313.848c-3.393 0-6.701-1.727-8.578-4.846l-9.665-16.061c-2.658-4.417-1.522-10.132 2.623-13.197l32.13-23.758-32.126-23.729c-4.148-3.064-5.286-8.781-2.627-13.2l20.586-34.208-38.766-9.644c-5.004-1.245-8.241-6.09-7.475-11.19l5.932-39.489-39.489 5.932c-5.095 0.765-9.945-2.471-11.189-7.475l-9.644-38.764-34.209 20.585c-4.417 2.658-10.131 1.523-13.196-2.623l-23.76-32.131-23.729 32.126c-3.064 4.147-8.782 5.286-13.2 2.627l-6.493-3.907c-4.732-2.847-6.26-8.992-3.413-13.724 2.579-4.286 7.864-5.943 12.353-4.102l26.432-35.787c1.885-2.552 4.869-4.058 8.041-4.059 0.001 0 0.002 0 0.003 0 3.172 0 6.155 1.504 8.04 4.054l26.399 35.7 38.012-22.874c2.718-1.636 6.051-1.884 8.982-0.671 2.931 1.214 5.112 3.747 5.878 6.825l10.715 43.069 43.881-6.591c3.131-0.47 6.312 0.574 8.557 2.818 2.243 2.244 3.289 5.419 2.817 8.557l-6.592 43.879 43.07 10.715c3.079 0.766 5.611 2.947 6.825 5.878s0.965 6.264-0.671 8.982l-22.872 38.007 35.692 26.363c2.552 1.885 4.058 4.869 4.059 8.042 0.001 3.172-1.504 6.157-4.055 8.043l-35.698 26.397 4.977 8.27c2.848 4.732 1.32 10.877-3.412 13.725C428.972 313.385 427.193 313.847 425.438 313.848z" fill="#000000" data-fill-palette-color="accent"></path></g><g fill="#81ffd9" data-fill-palette-color="accent"><path d="M255.98 290.316c-18.911 0-34.297-15.402-34.297-34.334 0-18.912 15.386-34.297 34.297-34.297 18.933 0 34.336 15.386 34.336 34.297C290.316 274.914 274.913 290.316 255.98 290.316zM255.98 241.685c-7.883 0-14.297 6.414-14.297 14.297 0 7.904 6.414 14.334 14.297 14.334 7.905 0 14.336-6.431 14.336-14.334C270.316 248.098 263.886 241.685 255.98 241.685z" fill="#000000" data-fill-palette-color="accent"></path></g><g fill="#81ffd9" data-fill-palette-color="accent"><path d="M255.98 241.685c-5.523 0-10-4.477-10-10v-116.41c0-5.523 4.477-10 10-10 5.522 0 10 4.477 10 10v116.41C265.98 237.208 261.503 241.685 255.98 241.685z" fill="#000000" data-fill-palette-color="accent"></path></g><g fill="#81ffd9" data-fill-palette-color="accent"><path d="M268.156 244.95c-1.696 0-3.415-0.432-4.99-1.341-4.783-2.761-6.422-8.877-3.66-13.66l58.205-100.816c2.76-4.782 8.875-6.421 13.66-3.66 4.783 2.761 6.422 8.877 3.66 13.66l-58.205 100.816C274.975 243.156 271.612 244.95 268.156 244.95z" fill="#000000" data-fill-palette-color="accent"></path></g><g fill="#81ffd9" data-fill-palette-color="accent"><path d="M277.061 253.834c-3.457 0-6.817-1.793-8.67-5.001-2.762-4.783-1.123-10.899 3.66-13.66l100.816-58.205c4.785-2.762 10.899-1.122 13.66 3.66 2.762 4.783 1.123 10.899-3.66 13.66l-100.816 58.205C280.476 253.402 278.757 253.834 277.061 253.834z" fill="#000000" data-fill-palette-color="accent"></path></g><g fill="#81ffd9" data-fill-palette-color="accent"><path d="M396.725 265.982H280.316c-5.522 0-10-4.478-10-10s4.478-10 10-10h116.408c5.522 0 10 4.477 10 10S402.247 265.982 396.725 265.982z" fill="#000000" data-fill-palette-color="accent"></path></g><g fill="#81ffd9" data-fill-palette-color="accent"><path d="M377.857 336.373c-1.696 0-3.415-0.433-4.99-1.342l-100.816-58.205c-4.783-2.762-6.422-8.877-3.66-13.66 2.761-4.782 8.876-6.421 13.66-3.66l100.816 58.205c4.783 2.762 6.422 8.877 3.66 13.66C384.676 334.579 381.313 336.373 377.857 336.373z" fill="#000000" data-fill-palette-color="accent"></path></g><g fill="#81ffd9" data-fill-palette-color="accent"><path d="M326.381 387.869c-3.457 0-6.817-1.794-8.67-5.002l-58.205-100.816c-2.762-4.783-1.123-10.898 3.66-13.66 4.787-2.761 10.898-1.121 13.66 3.66l58.205 100.816c2.762 4.783 1.123 10.898-3.66 13.66C329.796 387.437 328.077 387.869 326.381 387.869z" fill="#000000" data-fill-palette-color="accent"></path></g><g fill="#81ffd9" data-fill-palette-color="accent"><path d="M255.98 406.725c-5.523 0-10-4.478-10-10V280.316c0-5.522 4.477-10 10-10 5.522 0 10 4.478 10 10v116.408C265.98 402.247 261.503 406.725 255.98 406.725z" fill="#000000" data-fill-palette-color="accent"></path></g><g fill="#81ffd9" data-fill-palette-color="accent"><path d="M185.618 387.869c-1.697 0-3.416-0.433-4.991-1.342-4.783-2.762-6.422-8.877-3.66-13.66l58.205-100.816c2.762-4.783 8.878-6.42 13.66-3.66 4.783 2.762 6.422 8.877 3.66 13.66l-58.205 100.816C192.435 386.075 189.074 387.869 185.618 387.869z" fill="#000000" data-fill-palette-color="accent"></path></g><g fill="#81ffd9" data-fill-palette-color="accent"><path d="M134.14 336.373c-3.456 0-6.817-1.794-8.669-5.002-2.762-4.783-1.123-10.898 3.66-13.66l100.816-58.205c4.783-2.762 10.899-1.123 13.66 3.66 2.762 4.783 1.123 10.898-3.66 13.66l-100.816 58.205C137.556 335.94 135.836 336.373 134.14 336.373z" fill="#000000" data-fill-palette-color="accent"></path></g><g fill="#81ffd9" data-fill-palette-color="accent"><path d="M231.684 265.982h-116.41c-5.523 0-10-4.478-10-10s4.477-10 10-10h116.41c5.523 0 10 4.477 10 10S237.207 265.982 231.684 265.982z" fill="#000000" data-fill-palette-color="accent"></path></g><g fill="#81ffd9" data-fill-palette-color="accent"><path d="M234.938 253.834c-1.697 0-3.416-0.432-4.991-1.341l-100.816-58.205c-4.783-2.761-6.422-8.877-3.66-13.66 2.762-4.784 8.876-6.422 13.66-3.66l100.816 58.205c4.783 2.761 6.422 8.877 3.66 13.66C241.755 252.041 238.394 253.834 234.938 253.834z" fill="#000000" data-fill-palette-color="accent"></path></g><g fill="#81ffd9" data-fill-palette-color="accent"><path d="M243.841 244.95c-3.456 0-6.817-1.793-8.669-5.001l-58.205-100.816c-2.762-4.783-1.123-10.899 3.66-13.66 4.782-2.762 10.899-1.123 13.66 3.66l58.205 100.816c2.762 4.783 1.123 10.899-3.66 13.66C247.257 244.518 245.538 244.95 243.841 244.95z" fill="#000000" data-fill-palette-color="accent"></path></g></g></g></svg></g></svg></g></svg></g><defs></defs></svg><rect width="395.52" height="65.31878179923649" fill="none" stroke="none" visibility="hidden"></rect></g></svg></g></svg>